<svg width="45" height="44" viewBox="0 0 45 44" fill="none" xmlns="http://www.w3.org/2000/svg">
<path d="M14.0884 14.666V11.666C14.0884 7.24774 17.782 3.66602 22.3384 3.66602C26.8948 3.66602 30.5884 7.24774 30.5884 11.666V14.666" stroke="black" stroke-width="2.5"/>
<path d="M25.7884 13.75H18.8892C11.76 13.75 9.0022 15.5613 7.03063 22.4351C5.25481 28.6264 4.36691 31.722 5.29524 34.1227C5.86374 35.5929 6.87311 36.8678 8.19552 37.7857C12.9785 41.1063 31.4807 41.2579 36.482 37.7857C37.8044 36.8678 38.8139 35.5929 39.3824 34.1227C40.3106 31.722 39.4227 28.6264 37.6469 22.4351C35.7538 15.8349 33.2128 13.75 25.7884 13.75Z" fill="black"/>
<path d="M20.5044 20.166H24.1711" stroke="white" stroke-width="2.5" stroke-linecap="round"/>
</svg>
