<svg width="171" height="56" viewBox="0 0 171 56" fill="none" xmlns="http://www.w3.org/2000/svg">
<path d="M65.1065 28.6084C63.6913 28.6084 62.4228 28.3732 61.3011 27.9113C60.1793 27.4494 59.2128 26.7943 58.4189 25.9545C57.6251 25.1147 57.0124 24.0985 56.5982 22.9143C56.184 21.7301 55.9683 20.4368 55.9683 19.0175C55.9683 17.5814 56.1926 16.2629 56.6586 15.0535C57.1159 13.8442 57.7631 12.7944 58.6001 11.9125C59.4372 11.0307 60.4295 10.3505 61.5686 9.86337C62.7162 9.37627 63.9761 9.14111 65.3481 9.14111C66.8409 9.14111 68.1612 9.41826 69.3175 9.97254C70.4738 10.5268 71.4057 11.2995 72.1219 12.2989C72.8381 13.2983 73.2696 14.4656 73.4077 15.801H71.3798C71.121 14.8687 70.7067 14.0709 70.1286 13.4074C69.5504 12.7356 68.8601 12.2233 68.0576 11.8706C67.2551 11.5094 66.3491 11.3331 65.3567 11.3331C63.9847 11.3331 62.7766 11.669 61.7325 12.3325C60.6884 13.0043 59.8686 13.9197 59.2732 15.0787C58.6778 16.2377 58.3758 17.5562 58.3758 19.0259C58.3758 20.4956 58.6433 21.7889 59.1783 22.9059C59.7133 24.0229 60.4899 24.8879 61.5081 25.5094C62.5264 26.1309 63.7258 26.4416 65.1237 26.4416C66.2024 26.4416 67.1429 26.24 67.9454 25.8285C68.7479 25.417 69.4038 24.8291 69.9043 24.0397C70.4047 23.2586 70.7413 22.2928 70.9225 21.1507H72.3808C72.0615 23.6534 71.259 25.5178 69.9646 26.7607C68.653 27.9869 67.0394 28.6084 65.1065 28.6084ZM71.8889 28.3144C71.8889 27.6761 71.9062 26.9539 71.9321 26.1477C71.958 25.3414 72.0097 24.5268 72.0701 23.6953C72.1305 22.8639 72.1823 22.1165 72.2168 21.4614H65.6501V19.2862H74.2188V28.3228H71.8889V28.3144Z" fill="black"/>
<path d="M80.0834 9.14111V25.2889H90.036V27.3917H77.869V9.14111H80.0834Z" fill="black"/>
<path d="M102.811 28.6084C101.123 28.6084 99.583 28.2052 98.2076 27.399C96.8323 26.5928 95.7369 25.4674 94.9133 24.0145C94.0897 22.5616 93.6862 20.8483 93.6862 18.8747C93.6862 16.9011 94.098 15.1795 94.9133 13.7182C95.7287 12.2569 96.824 11.1315 98.2076 10.3337C99.583 9.53583 101.115 9.14111 102.811 9.14111C104.508 9.14111 106.04 9.53583 107.415 10.3337C108.791 11.1315 109.886 12.2569 110.71 13.7182C111.525 15.1795 111.937 16.9011 111.937 18.8747C111.937 20.8483 111.525 22.5616 110.71 24.0145C109.894 25.4674 108.799 26.5928 107.415 27.399C106.032 28.2052 104.5 28.6084 102.811 28.6084ZM102.811 26.4248C104.104 26.4248 105.266 26.1393 106.287 25.5682C107.308 24.9971 108.132 24.1489 108.741 23.0235C109.351 21.8981 109.655 20.5124 109.655 18.8663C109.655 17.2203 109.351 15.8429 108.741 14.726C108.132 13.609 107.316 12.7608 106.287 12.1813C105.257 11.6018 104.104 11.3079 102.811 11.3079C101.535 11.3079 100.382 11.6018 99.3524 12.1813C98.3147 12.7608 97.4993 13.609 96.8899 14.726C96.2804 15.8429 95.9757 17.2203 95.9757 18.8663C95.9757 20.5124 96.2804 21.8981 96.8899 23.0235C97.4993 24.1489 98.3229 24.9971 99.3524 25.5682C100.382 26.1393 101.535 26.4248 102.811 26.4248Z" fill="black"/>
<path d="M123.495 28.6084C121.807 28.6084 120.267 28.2052 118.892 27.399C117.516 26.5928 116.421 25.4674 115.597 24.0145C114.774 22.5616 114.37 20.8483 114.37 18.8747C114.37 16.9011 114.782 15.1795 115.597 13.7182C116.413 12.2569 117.508 11.1315 118.892 10.3337C120.267 9.53583 121.799 9.14111 123.495 9.14111C125.192 9.14111 126.724 9.53583 128.099 10.3337C129.475 11.1315 130.57 12.2569 131.394 13.7182C132.209 15.1795 132.621 16.9011 132.621 18.8747C132.621 20.8483 132.209 22.5616 131.394 24.0145C130.578 25.4674 129.483 26.5928 128.099 27.399C126.724 28.2052 125.184 28.6084 123.495 28.6084ZM123.495 26.4248C124.788 26.4248 125.95 26.1393 126.971 25.5682C127.992 24.9971 128.816 24.1489 129.425 23.0235C130.035 21.8981 130.339 20.5124 130.339 18.8663C130.339 17.2203 130.035 15.8429 129.425 14.726C128.816 13.609 128 12.7608 126.971 12.1813C125.941 11.6018 124.788 11.3079 123.495 11.3079C122.219 11.3079 121.066 11.6018 120.036 12.1813C118.999 12.7608 118.183 13.609 117.574 14.726C116.964 15.8429 116.66 17.2203 116.66 18.8663C116.66 20.5124 116.964 21.8981 117.574 23.0235C118.183 24.1489 119.007 24.9971 120.036 25.5682C121.066 26.1393 122.219 26.4248 123.495 26.4248Z" fill="black"/>
<path d="M136.271 27.3917V9.14111H144.622C145.943 9.14111 147.07 9.33587 147.995 9.71727C148.928 10.0987 149.643 10.6748 150.131 11.4458C150.627 12.2167 150.871 13.1742 150.871 14.3347C150.871 15.1218 150.737 15.7954 150.476 16.3553C150.215 16.9152 149.854 17.3859 149.383 17.7754C148.92 18.1568 148.365 18.4571 147.743 18.66C147.112 18.8628 146.431 19.0008 145.69 19.0495L145.606 18.9115C146.632 18.9521 147.515 19.0738 148.256 19.2767C148.996 19.4796 149.568 19.8529 149.971 20.3966C150.375 20.9403 150.585 21.7518 150.585 22.8392V27.3835H148.256V22.8392C148.256 22.0926 148.121 21.5083 147.86 21.0863C147.6 20.6644 147.162 20.3641 146.548 20.1856C145.934 20.007 145.102 19.9178 144.034 19.9178H138.592V27.3835H136.271V27.3917ZM138.6 17.816H144.622C145.943 17.816 146.927 17.4914 147.574 16.8503C148.222 16.2011 148.55 15.3653 148.55 14.3347C148.55 13.3447 148.222 12.5819 147.574 12.0463C146.927 11.5107 145.943 11.2429 144.622 11.2429H138.6V17.816Z" fill="black"/>
<path d="M153.305 27.3917L160.556 9.14111H163.027L170.338 27.3917H167.808L161.431 10.8858H162.136L155.759 27.3917H153.305ZM157.185 22.6201V20.5183H166.347V22.6201H157.185Z" fill="black"/>
<path d="M101.414 35.1074H103.766C104.091 35.1074 104.403 35.1393 104.703 35.203C105.008 35.2604 105.279 35.3624 105.515 35.5089C105.751 35.6555 105.939 35.8531 106.079 36.1016C106.219 36.3502 106.289 36.6657 106.289 37.0481C106.289 37.5388 106.152 37.9499 105.878 38.2813C105.611 38.6127 105.225 38.8135 104.722 38.8836L106.519 41.8758H105.066L103.498 39.0078H102.618V41.8758H101.414V35.1074ZM103.555 37.9754C103.727 37.9754 103.899 37.969 104.072 37.9563C104.244 37.9371 104.4 37.8989 104.54 37.8415C104.687 37.7778 104.804 37.6854 104.894 37.5643C104.983 37.4368 105.028 37.2616 105.028 37.0385C105.028 36.8409 104.986 36.6816 104.903 36.5605C104.82 36.4394 104.712 36.3502 104.578 36.2928C104.444 36.2291 104.295 36.1877 104.129 36.1686C103.97 36.1494 103.813 36.1399 103.661 36.1399H102.618V37.9754H103.555Z" fill="#F3A17C"/>
<path d="M95.5704 35.1074H100.054V36.1972H96.775V37.8607H99.8819V38.9505H96.775V40.786H100.226V41.8758H95.5704V35.1074Z" fill="#F3A17C"/>
<path d="M88.4098 35.1074H89.796L91.641 40.2219L93.5434 35.1074H94.8436L92.1094 41.8758H91.0674L88.4098 35.1074Z" fill="#F3A17C"/>
<path d="M80.8669 38.5204C80.8669 37.9786 80.9562 37.4879 81.1346 37.0481C81.3131 36.602 81.5584 36.2228 81.8707 35.9105C82.1894 35.5982 82.5654 35.3592 82.9988 35.1935C83.4385 35.0215 83.9197 34.9354 84.4423 34.9354C84.9713 34.929 85.4557 35.0087 85.8954 35.1744C86.3352 35.3337 86.7144 35.5695 87.033 35.8818C87.3517 36.1941 87.6003 36.5701 87.7787 37.0099C87.9572 37.4496 88.0464 37.9404 88.0464 38.4821C88.0464 39.0111 87.9572 39.4923 87.7787 39.9256C87.6003 40.359 87.3517 40.7319 87.033 41.0441C86.7144 41.3564 86.3352 41.6018 85.8954 41.7803C85.4557 41.9523 84.9713 42.0416 84.4423 42.0479C83.9197 42.0479 83.4385 41.9651 82.9988 41.7994C82.5654 41.6273 82.1894 41.3883 81.8707 41.0824C81.5584 40.7701 81.3131 40.3973 81.1346 39.9639C80.9562 39.5305 80.8669 39.0493 80.8669 38.5204ZM82.1288 38.4439C82.1288 38.8071 82.183 39.1417 82.2914 39.4477C82.4061 39.7536 82.5654 40.0181 82.7694 40.2411C82.9733 40.4642 83.2155 40.6394 83.4959 40.7669C83.7827 40.8944 84.1014 40.9581 84.4519 40.9581C84.8024 40.9581 85.1211 40.8944 85.4079 40.7669C85.6947 40.6394 85.94 40.4642 86.144 40.2411C86.3479 40.0181 86.5041 39.7536 86.6124 39.4477C86.7271 39.1417 86.7845 38.8071 86.7845 38.4439C86.7845 38.1061 86.7271 37.7906 86.6124 37.4974C86.5041 37.2043 86.3479 36.9494 86.144 36.7327C85.94 36.5096 85.6947 36.3375 85.4079 36.2164C85.1211 36.089 84.8024 36.0252 84.4519 36.0252C84.1014 36.0252 83.7827 36.089 83.4959 36.2164C83.2155 36.3375 82.9733 36.5096 82.7694 36.7327C82.5654 36.9494 82.4061 37.2043 82.2914 37.4974C82.183 37.7906 82.1288 38.1061 82.1288 38.4439Z" fill="#F3A17C"/>
<path d="M79.332 36.6943C79.0834 36.4266 78.8412 36.2482 78.6054 36.159C78.376 36.0697 78.1434 36.0251 77.9076 36.0251C77.557 36.0251 77.2384 36.0889 76.9516 36.2163C76.6712 36.3374 76.429 36.5095 76.225 36.7326C76.0211 36.9492 75.8618 37.2042 75.747 37.4973C75.6387 37.7905 75.5845 38.106 75.5845 38.4438C75.5845 38.807 75.6387 39.1416 75.747 39.4475C75.8618 39.7535 76.0211 40.0179 76.225 40.241C76.429 40.4641 76.6712 40.6393 76.9516 40.7668C77.2384 40.8943 77.557 40.958 77.9076 40.958C78.1816 40.958 78.4461 40.8943 78.701 40.7668C78.9623 40.633 79.2045 40.4226 79.4276 40.1359L80.4218 40.8433C80.1159 41.2639 79.7431 41.5698 79.3033 41.761C78.8636 41.9522 78.3951 42.0478 77.898 42.0478C77.3754 42.0478 76.8942 41.965 76.4545 41.7993C76.0211 41.6272 75.6451 41.3882 75.3264 41.0823C75.0141 40.77 74.7688 40.3972 74.5903 39.9638C74.4119 39.5304 74.3226 39.0492 74.3226 38.5202C74.3226 37.9785 74.4119 37.4878 74.5903 37.048C74.7688 36.6019 75.0141 36.2227 75.3264 35.9104C75.6451 35.5981 76.0211 35.3591 76.4545 35.1934C76.8942 35.0213 77.3754 34.9353 77.898 34.9353C78.3569 34.9353 78.7807 35.0182 79.1695 35.1839C79.5646 35.3432 79.9311 35.6172 80.2689 36.006L79.332 36.6943Z" fill="#F3A17C"/>
<path d="M72.5141 36.5605C72.3866 36.3757 72.2145 36.2418 71.9978 36.159C71.7875 36.0697 71.5644 36.0251 71.3286 36.0251C71.1884 36.0251 71.0514 36.0411 70.9176 36.0729C70.7901 36.1048 70.6722 36.1558 70.5638 36.2259C70.4619 36.296 70.379 36.3884 70.3153 36.5031C70.2516 36.6115 70.2197 36.7421 70.2197 36.8951C70.2197 37.1245 70.2994 37.2998 70.4587 37.4209C70.618 37.542 70.8156 37.6471 71.0514 37.7363C71.2872 37.8256 71.5453 37.9116 71.8257 37.9945C72.1062 38.0773 72.3643 38.192 72.6001 38.3386C72.8359 38.4852 73.0335 38.6796 73.1928 38.9218C73.3521 39.1639 73.4318 39.4858 73.4318 39.8873C73.4318 40.2506 73.3649 40.5692 73.231 40.8433C73.0972 41.111 72.9156 41.334 72.6861 41.5125C72.4631 41.6909 72.2018 41.8248 71.9022 41.914C71.6027 42.0032 71.2872 42.0478 70.9558 42.0478C70.5352 42.0478 70.1305 41.9777 69.7417 41.8375C69.3529 41.6973 69.0183 41.4615 68.7379 41.1301L69.6461 40.2506C69.7927 40.4736 69.9839 40.6489 70.2197 40.7764C70.4619 40.8975 70.7168 40.958 70.9845 40.958C71.1247 40.958 71.2649 40.9389 71.4051 40.9006C71.5453 40.8624 71.6728 40.805 71.7875 40.7286C71.9022 40.6521 71.9946 40.5565 72.0647 40.4418C72.1348 40.3207 72.1699 40.1837 72.1699 40.0307C72.1699 39.7821 72.0902 39.5909 71.9309 39.4571C71.7716 39.3233 71.574 39.2117 71.3382 39.1225C71.1024 39.0269 70.8443 38.9377 70.5638 38.8548C70.2834 38.772 70.0253 38.6605 69.7895 38.5202C69.5537 38.3737 69.3561 38.1825 69.1968 37.9467C69.0375 37.7045 68.9578 37.3826 68.9578 36.9811C68.9578 36.6306 69.0279 36.3279 69.1681 36.0729C69.3147 35.818 69.5027 35.6077 69.7321 35.442C69.9679 35.2699 70.2356 35.1424 70.5352 35.0596C70.8347 34.9767 71.1406 34.9353 71.4529 34.9353C71.8098 34.9353 72.154 34.9895 72.4854 35.0978C72.8232 35.2062 73.1259 35.3846 73.3936 35.6332L72.5141 36.5605Z" fill="#F3A17C"/>
<path d="M66.5071 35.1074H67.7116V41.8758H66.5071V35.1074Z" fill="#F3A17C"/>
<path d="M59.2816 35.1074H61.9488C62.3949 35.1074 62.8251 35.1775 63.2394 35.3177C63.6536 35.4516 64.0201 35.6587 64.3388 35.9391C64.6574 36.2195 64.9124 36.5733 65.1036 37.0003C65.2948 37.4209 65.3904 37.918 65.3904 38.4916C65.3904 39.0716 65.2788 39.5751 65.0558 40.0021C64.8391 40.4227 64.5555 40.7732 64.2049 41.0536C63.8608 41.3277 63.4752 41.5348 63.0482 41.675C62.6276 41.8089 62.2133 41.8758 61.8054 41.8758H59.2816V35.1074ZM61.3848 40.786C61.7608 40.786 62.1145 40.7445 62.4459 40.6617C62.7837 40.5725 63.0769 40.4386 63.3254 40.2602C63.574 40.0753 63.7684 39.8395 63.9086 39.5527C64.0552 39.2596 64.1285 38.9059 64.1285 38.4916C64.1285 38.0837 64.0647 37.7332 63.9373 37.44C63.8098 37.1469 63.6313 36.911 63.4019 36.7326C63.1788 36.5478 62.9112 36.4139 62.5989 36.3311C62.293 36.2419 61.9552 36.1972 61.5855 36.1972H60.4862V40.786H61.3848Z" fill="#F3A17C"/>
<path d="M108.622 44.4856H109.941L111.213 49.3611H111.232L112.752 44.4856H113.937L115.428 49.3611H115.448L116.776 44.4856H118L116.031 51.254H114.884L113.316 46.1012H113.297L111.729 51.254H110.62L108.622 44.4856Z" fill="#F3A17C"/>
<path d="M101.051 47.8985C101.051 47.3568 101.14 46.8661 101.318 46.4263C101.497 45.9802 101.742 45.601 102.055 45.2887C102.373 44.9764 102.749 44.7374 103.183 44.5717C103.622 44.3996 104.104 44.3136 104.626 44.3136C105.155 44.3072 105.64 44.3869 106.079 44.5526C106.519 44.7119 106.898 44.9477 107.217 45.26C107.536 45.5723 107.784 45.9483 107.963 46.3881C108.141 46.8278 108.23 47.3186 108.23 47.8603C108.23 48.3893 108.141 48.8704 107.963 49.3038C107.784 49.7372 107.536 50.11 107.217 50.4223C106.898 50.7346 106.519 50.98 106.079 51.1584C105.64 51.3305 105.155 51.4197 104.626 51.4261C104.104 51.4261 103.622 51.3433 103.183 51.1775C102.749 51.0055 102.373 50.7665 102.055 50.4606C101.742 50.1483 101.497 49.7754 101.318 49.3421C101.14 48.9087 101.051 48.4275 101.051 47.8985ZM102.313 47.822C102.313 48.1853 102.367 48.5199 102.475 48.8258C102.59 49.1317 102.749 49.3962 102.953 49.6193C103.157 49.8424 103.399 50.0176 103.68 50.1451C103.967 50.2726 104.285 50.3363 104.636 50.3363C104.986 50.3363 105.305 50.2726 105.592 50.1451C105.878 50.0176 106.124 49.8424 106.328 49.6193C106.532 49.3962 106.688 49.1317 106.796 48.8258C106.911 48.5199 106.968 48.1853 106.968 47.822C106.968 47.4843 106.911 47.1688 106.796 46.8756C106.688 46.5825 106.532 46.3275 106.328 46.1108C106.124 45.8878 105.878 45.7157 105.592 45.5946C105.305 45.4671 104.986 45.4034 104.636 45.4034C104.285 45.4034 103.967 45.4671 103.68 45.5946C103.399 45.7157 103.157 45.8878 102.953 46.1108C102.749 46.3275 102.59 46.5825 102.475 46.8756C102.367 47.1688 102.313 47.4843 102.313 47.822Z" fill="#F3A17C"/>
<path d="M96.4561 44.4856H97.6606V50.1641H100.538V51.254H96.4561V44.4856Z" fill="#F3A17C"/>
<path d="M95.0286 50.7568C94.1937 51.2029 93.2601 51.426 92.2276 51.426C91.705 51.426 91.2238 51.3431 90.7841 51.1774C90.3507 51.0054 89.9747 50.7664 89.656 50.4605C89.3437 50.1482 89.0983 49.7753 88.9199 49.342C88.7414 48.9086 88.6522 48.4274 88.6522 47.8984C88.6522 47.3567 88.7414 46.866 88.9199 46.4262C89.0983 45.9801 89.3437 45.6009 89.656 45.2886C89.9747 44.9763 90.3507 44.7373 90.7841 44.5716C91.2238 44.3995 91.705 44.3135 92.2276 44.3135C92.7438 44.3135 93.2282 44.3772 93.6807 44.5047C94.1332 44.6258 94.5379 44.8456 94.8948 45.1643L94.0057 46.0629C93.789 45.8526 93.5246 45.6901 93.2123 45.5754C92.9063 45.4607 92.5813 45.4033 92.2372 45.4033C91.8866 45.4033 91.568 45.467 91.2812 45.5945C91.0008 45.7156 90.7586 45.8877 90.5546 46.1107C90.3507 46.3274 90.1914 46.5823 90.0766 46.8755C89.9683 47.1687 89.9141 47.4842 89.9141 47.8219C89.9141 48.1852 89.9683 48.5198 90.0766 48.8257C90.1914 49.1316 90.3507 49.3961 90.5546 49.6192C90.7586 49.8422 91.0008 50.0175 91.2812 50.145C91.568 50.2724 91.8866 50.3362 92.2372 50.3362C92.5431 50.3362 92.8299 50.3075 93.0975 50.2501C93.3716 50.1928 93.6138 50.1035 93.8241 49.9825V48.386H92.4379V47.2961H95.0286V50.7568Z" fill="#F3A17C"/>
<path d="M80.1652 44.4856H82.5169C82.8419 44.4856 83.1542 44.5175 83.4537 44.5812C83.7597 44.6386 84.0305 44.7405 84.2663 44.8871C84.5021 45.0337 84.6901 45.2313 84.8304 45.4798C84.9706 45.7284 85.0407 46.0438 85.0407 46.4262C85.0407 46.917 84.9037 47.3281 84.6296 47.6595C84.3619 47.9909 83.9763 48.1916 83.4729 48.2617L85.2701 51.254H83.817L82.2492 48.386H81.3697V51.254H80.1652V44.4856ZM82.3066 47.3535C82.4786 47.3535 82.6507 47.3472 82.8228 47.3344C82.9949 47.3153 83.151 47.2771 83.2912 47.2197C83.4378 47.156 83.5557 47.0636 83.6449 46.9425C83.7342 46.815 83.7788 46.6397 83.7788 46.4167C83.7788 46.2191 83.7374 46.0598 83.6545 45.9387C83.5716 45.8176 83.4633 45.7284 83.3295 45.671C83.1956 45.6073 83.0459 45.5659 82.8802 45.5467C82.7208 45.5276 82.5647 45.5181 82.4117 45.5181H81.3697V47.3535H82.3066Z" fill="#F3A17C"/>
<path d="M78.6865 48.7684C78.6865 49.1763 78.6164 49.5459 78.4762 49.8773C78.336 50.2024 78.1448 50.4796 77.9026 50.709C77.6604 50.9385 77.3736 51.1169 77.0422 51.2444C76.7108 51.3655 76.3507 51.426 75.962 51.426C75.5732 51.426 75.2131 51.3655 74.8817 51.2444C74.5503 51.1169 74.2603 50.9385 74.0118 50.709C73.7696 50.4796 73.5784 50.2024 73.4382 49.8773C73.3043 49.5459 73.2374 49.1763 73.2374 48.7684V44.4856H74.442V48.7302C74.442 48.8959 74.4675 49.0711 74.5184 49.256C74.5694 49.4344 74.6523 49.6001 74.767 49.7531C74.8881 49.906 75.0442 50.0335 75.2354 50.1355C75.433 50.2311 75.6752 50.2789 75.962 50.2789C76.2488 50.2789 76.4878 50.2311 76.679 50.1355C76.8765 50.0335 77.0327 49.906 77.1474 49.7531C77.2685 49.6001 77.3545 49.4344 77.4055 49.256C77.4565 49.0711 77.482 48.8959 77.482 48.7302V44.4856H78.6865V48.7684Z" fill="#F3A17C"/>
<path d="M64.9396 47.8985C64.9396 47.3568 65.0288 46.8661 65.2073 46.4263C65.3857 45.9802 65.6311 45.601 65.9434 45.2887C66.262 44.9764 66.638 44.7374 67.0714 44.5717C67.5112 44.3996 67.9923 44.3136 68.515 44.3136C69.0439 44.3072 69.5283 44.3869 69.968 44.5526C70.4078 44.7119 70.787 44.9477 71.1057 45.26C71.4243 45.5723 71.6729 45.9483 71.8513 46.3881C72.0298 46.8278 72.119 47.3186 72.119 47.8603C72.119 48.3893 72.0298 48.8704 71.8513 49.3038C71.6729 49.7372 71.4243 50.11 71.1057 50.4223C70.787 50.7346 70.4078 50.98 69.968 51.1584C69.5283 51.3305 69.0439 51.4197 68.515 51.4261C67.9923 51.4261 67.5112 51.3433 67.0714 51.1775C66.638 51.0055 66.262 50.7665 65.9434 50.4606C65.6311 50.1483 65.3857 49.7754 65.2073 49.3421C65.0288 48.9087 64.9396 48.4275 64.9396 47.8985ZM66.2015 47.822C66.2015 48.1853 66.2556 48.5199 66.364 48.8258C66.4787 49.1317 66.638 49.3962 66.842 49.6193C67.0459 49.8424 67.2881 50.0176 67.5685 50.1451C67.8553 50.2726 68.174 50.3363 68.5245 50.3363C68.875 50.3363 69.1937 50.2726 69.4805 50.1451C69.7673 50.0176 70.0127 49.8424 70.2166 49.6193C70.4205 49.3962 70.5767 49.1317 70.685 48.8258C70.7998 48.5199 70.8571 48.1853 70.8571 47.822C70.8571 47.4843 70.7998 47.1688 70.685 46.8756C70.5767 46.5825 70.4205 46.3275 70.2166 46.1108C70.0127 45.8878 69.7673 45.7157 69.4805 45.5946C69.1937 45.4671 68.875 45.4034 68.5245 45.4034C68.174 45.4034 67.8553 45.4671 67.5685 45.5946C67.2881 45.7157 67.0459 45.8878 66.842 46.1108C66.638 46.3275 66.4787 46.5825 66.364 46.8756C66.2556 47.1688 66.2015 47.4843 66.2015 47.822Z" fill="#F3A17C"/>
<path d="M60.935 48.3573L58.3921 44.4856H59.9025L61.566 47.1815L63.2485 44.4856H64.6825L62.1395 48.3573V51.254H60.935V48.3573Z" fill="#F3A17C"/>
<path d="M37.8782 0.624146H7.13981C3.2026 0.624146 0 3.81148 0 7.72994V48.27C0 52.1884 3.2026 55.3758 7.13981 55.3758H10.9202H13.6688H31.2584H34.007H37.8782C41.8154 55.3758 45.018 52.1884 45.018 48.27V7.72994C45.018 3.81148 41.8154 0.624146 37.8782 0.624146ZM3.12006 13.62L13.413 23.6256H3.12006V13.62ZM3.12006 26.7226H16.6073L20.9077 30.9039V37.5086L20.8994 39.0612H3.12006V26.7226ZM24.0278 23.412L41.4935 5.98841C41.7494 6.51415 41.8979 7.10562 41.8979 7.72994V17.6452L24.0195 34.7402V23.412H24.0278ZM41.8979 21.9498V38.5272L33.2228 30.2549L41.8979 21.9498ZM39.1493 3.93471L24.0278 19.0171V3.72934H37.8782C38.3239 3.72934 38.7449 3.80327 39.1493 3.93471ZM7.13981 3.72934H20.9077V26.5665L3.12006 9.27433V7.72994C3.12006 5.52837 4.91945 3.72934 7.13981 3.72934ZM10.9202 52.2788H7.13981C4.91945 52.2788 3.12006 50.4797 3.12006 48.2782V42.1746H20.8912L20.8829 45.1237C20.8747 49.075 17.6391 52.287 13.6688 52.287H10.9202V52.2788ZM37.8782 52.2788H34.007H31.2584C27.2881 52.2788 24.0525 49.0668 24.0443 45.1155L24.0278 39.0448L30.9695 32.4072L41.8979 42.8318V48.2864C41.8979 50.488 40.0985 52.2788 37.8782 52.2788Z" fill="#F3A17C"/>
</svg>
