<svg width="21" height="21" viewBox="0 0 21 21" fill="none" xmlns="http://www.w3.org/2000/svg">
<path d="M10.0625 7H17.6715C18.2182 7 18.4915 7 18.6917 7.08823C19.5769 7.47854 19.1811 8.46191 19.0322 9.1686C19.0054 9.29556 18.9184 9.40362 18.7964 9.46155C18.2904 9.70165 17.9359 10.1571 17.8429 10.6867L17.3244 13.6393C17.0963 14.9384 17.0183 16.795 15.8798 17.7102C15.0446 18.375 13.8411 18.375 11.4341 18.375H9.56594C7.15892 18.375 5.95543 18.375 5.12015 17.7102C3.98171 16.7949 3.90371 14.9384 3.67558 13.6393L3.15706 10.6867C3.06405 10.1571 2.70964 9.70165 2.20361 9.46155C2.08159 9.40362 1.99458 9.29556 1.96782 9.1686C1.8189 8.46191 1.4231 7.47854 2.30836 7.08823C2.50849 7 2.78182 7 3.32848 7H6.5625" stroke="white" stroke-width="2" stroke-linecap="round"/>
<path d="M12.25 10.5H8.75" stroke="white" stroke-width="2" stroke-linecap="round" stroke-linejoin="round"/>
<path d="M5.6875 9.625L8.75 2.625M13.125 2.625L15.3125 7" stroke="white" stroke-width="2" stroke-linecap="round"/>
</svg>
